{"title":"Annie.Claus.is.Coming.to.Town.2011.HDTV.XviD- NoGRP","uid":6905809,"size":733577833,"categoryP":"video","categoryS":"movies","magnet":"?xt=urn:btih:3a424e70a24c839c47b19080e40ac8b999d283c3&amp;dn=Annie.Claus.is.Coming.to.Town.2011.HDTV.XviD-+NoGRP&amp;tr=udp%3A%2F%2Ftracker.openbittorrent.com%3A80&amp;tr=udp%3A%2F%2Fopen.demonii.com%3A1337&amp;tr=udp%3A%2F%2Ftracker.coppersurfer.tk%3A6969&amp;tr=udp%3A%2F%2Fexodus.desync.com%3A6969","seeders":2,"leechers":0,"uploader":"LegendET","files":3,"time":1324579657,"description":"[center]\n\nAnnie Claus is Coming to Town 2011 HDTV XviD-NoGRP\n &lt;a href=&quot;\nhttp://www.imdb.com/title/tt1910501/&quot; rel=&quot;nofollow&quot; target=&quot;_NEW&quot;&gt;\nhttp://www.imdb.com/title/tt1910501/&lt;/a&gt;\n\nGeneral\nComplete name                    : Annie.Claus.is.Coming.to.Town.2011.HDTV.XviD-NoGRP.avi\nFormat                         : AVI\nFormat/Info                      : Audio Video Interleave\nFile size                        : 700 MiB\nDuration                       : 1h 23mn\nOverall bit rate               : 1 173 Kbps\n\nVideo\nID                             : 0\nFormat                         : MPEG-4 Visual\nFormat profile                 : Advanced Simple@L5\nFormat settings, BVOP            : 2\nFormat settings, QPel            : No\nFormat settings, GMC           : No warppoints\nFormat settings, Matrix          : Default (H.263)\nCodec ID                       : XVID\nCodec ID/Hint                    : XviD\nDuration                       : 1h 23mn\nBit rate                       : 1 031 Kbps\nWidth                            : 624 pixels\nHeight                         : 352 pixels\nDisplay aspect ratio           : 16:9\nFrame rate                     : 29.970 fps\nColor space                      : YUV\nChroma subsampling             : 4:2:0\nBit depth                        : 8 bits\nScan type                        : Progressive\nCompression mode               : Lossy\nBits/(Pixel*Frame)             : 0.157\nStream size                      : 615 MiB (88%)\nWriting library                  : XviD 63\n\nAudio\nID                             : 1\nFormat                         : MPEG Audio\nFormat version                 : Version 1\nFormat profile                 : Layer 3\nCodec ID                       : 55\nCodec ID/Hint                    : MP3\nDuration                       : 1h 23mn\nBit rate mode                    : Constant\nBit rate                       : 128 Kbps\nChannel(s)                     : 2 channels\nSampling rate                    : 48.0 KHz\nCompression mode               : Lossy\nStream size                      : 76.3 MiB (11%)\nAlignment                        : Split accross interleaves\nInterleave, duration           : 24 ms (0.72 video frame) \n\nCast\n\nMaria Thayer ... Annie\nSam Page ... Ted\nNay Nay Kirby ... Mia\nVivica A. Fox ... Lucy\nRyan Bittle ... Dean\nRandy J. Goodwin ... Barry\nMatt Winston ... Chester\nLucy Loken ... Amy\n\n[img]http://i.imgur.com/6pyzG.png[/img]\n[img]http://i.imgur.com/8hpfh.png[/img]\n[img]http://i.imgur.com/YTGIr.png[/img][/center]","torrent":{"xt":"urn:btih:3a424e70a24c839c47b19080e40ac8b999d283c3","amp;dn":"Annie.Claus.is.Coming.to.Town.2011.HDTV.XviD-+NoGRP","amp;tr":["udp%3A%2F%2Ftracker.openbittorrent.com%3A80","udp%3A%2F%2Fopen.demonii.com%3A1337","udp%3A%2F%2Ftracker.coppersurfer.tk%3A6969","udp%3A%2F%2Fexodus.desync.com%3A6969"],"infoHash":"3a424e70a24c839c47b19080e40ac8b999d283c3","infoHashBuffer":{"type":"Buffer","data":[58,66,78,112,162,76,131,156,71,177,144,128,228,10,200,185,153,210,131,195]},"announce":[],"urlList":[]}}